<svg xmlns="http://www.w3.org/2000/svg" xmlns:xlink="http://www.w3.org/1999/xlink" width="500" zoomAndPan="magnify" viewBox="0 0 375 374.999991" height="500" preserveAspectRatio="xMidYMid meet" version="1.0"><defs><clipPath id="e267b10229"><path d="M 57.1875 47 L 94 47 L 94 88 L 57.1875 88 Z M 57.1875 47 " clip-rule="nonzero"/></clipPath></defs><path fill="#5388b0" d="M 83.984375 161.597656 C 84.546875 137.660156 90.933594 105.480469 121.769531 83.859375 C 129.011719 78.78125 136.992188 74.832031 145.207031 71.5625 C 173.40625 60.355469 207.109375 56.796875 232.980469 72.664062 C 241.464844 77.871094 248.695312 84.925781 255.109375 92.550781 C 268.753906 108.777344 279.109375 128.171875 282.382812 149.101562 C 285.65625 170.027344 281.339844 192.519531 268.464844 209.355469 C 254.472656 227.648438 231.285156 238.757812 221.898438 259.785156 C 212.933594 279.875 219.089844 303.667969 213.035156 324.8125 C 212.5 326.664062 211.816406 328.574219 210.371094 329.847656 C 208.585938 331.394531 206.066406 331.652344 203.707031 331.839844 C 195.640625 332.476562 187.585938 333.113281 179.519531 333.75 C 128.941406 337.726562 140.660156 295.582031 130.707031 261.175781 C 119.351562 221.863281 82.96875 204.175781 83.984375 161.597656 Z M 83.984375 161.597656 " fill-opacity="1" fill-rule="nonzero"/><path fill="#cadfdf" d="M 220.089844 270.648438 C 221.464844 270.546875 223.085938 270.53125 223.96875 271.601562 C 224.5625 272.324219 224.636719 273.339844 224.664062 274.277344 C 225.230469 288.234375 225.78125 302.179688 226.34375 316.136719 C 226.535156 320.691406 226.691406 325.390625 225.097656 329.671875 C 220.753906 341.386719 205.125 345.914062 200.882812 357.660156 C 199.375 361.851562 200.503906 360.21875 198.261719 364.066406 C 194.957031 369.75 187.730469 371.613281 181.226562 372.640625 C 174.21875 373.742188 166.84375 374.464844 160.195312 371.992188 C 157.589844 371.023438 154.96875 369.359375 154.085938 366.710938 C 153.246094 364.167969 154.246094 361.390625 154.144531 358.714844 C 153.984375 354.070312 149.59375 356.558594 145.902344 353.738281 C 142.207031 350.917969 138.007812 348.691406 134.90625 345.234375 C 127.695312 337.179688 128.433594 325.101562 127.332031 314.355469 C 125.941406 300.90625 120.726562 277.417969 138.542969 271.691406 C 143.785156 269.996094 149.8125 271.878906 155.113281 272.355469 C 164.644531 273.207031 174.390625 272.660156 183.9375 272.414062 C 196 272.09375 208.050781 271.5 220.089844 270.648438 Z M 220.089844 270.648438 " fill-opacity="1" fill-rule="nonzero"/><path stroke-linecap="round" transform="matrix(1.448391, 0, 0, 1.44631, -120.385183, -118.322174)" fill="none" stroke-linejoin="round" d="M 197.130458 267.530236 C 197.621305 251.819453 190.860029 236.918922 184.489812 222.550456 C 183.141332 219.501208 182.181215 215.139353 185.091234 213.499943 C 186.739076 212.570854 188.910127 213.189347 190.320637 214.458741 C 191.720359 215.730837 192.529446 217.51069 193.308868 219.231124 C 194.039743 220.848927 195.229102 222.750318 197.001004 222.580165 C 197.82088 222.49914 198.519392 221.969776 199.161269 221.429608 C 201.769228 219.231124 204.120976 216.730147 206.140998 213.980693 C 207.78884 216.060339 209.498712 218.199404 211.839673 219.460696 C 214.180633 220.719287 217.319893 220.88944 219.310249 219.131193 C 220.359366 218.210207 221.049788 216.811172 222.36051 216.31962 C 224.380532 215.560684 226.570463 217.618723 226.788916 219.779395 C 227.010067 221.940066 225.909708 223.9792 224.849803 225.858984 C 217.65971 238.620451 210.100134 252.629705 212.459973 267.079196 " stroke="#144778" stroke-width="5" stroke-opacity="1" stroke-miterlimit="10"/><g clip-path="url(#e267b10229)"><path stroke-linecap="round" transform="matrix(1.448391, 0, 0, 1.44631, -120.385183, -118.322174)" fill="none" stroke-linejoin="round" d="M 144.909242 139.869659 C 143.808883 137.290357 141.910224 135.140489 140.019655 133.060842 C 135.210977 127.769898 130.280936 122.578885 125.24032 117.509409 C 125.879499 117.420281 126.559133 117.579631 127.090434 117.949646 " stroke="#144778" stroke-width="5" stroke-opacity="1" stroke-miterlimit="10"/></g><path stroke-linecap="round" transform="matrix(1.448391, 0, 0, 1.44631, -120.385183, -118.322174)" fill="none" stroke-linejoin="round" d="M 178.329957 116.420971 C 178.750683 116.169793 178.669774 115.5513 178.529532 115.078653 C 175.789422 106.079456 170.508776 97.731162 169.759022 88.351146 " stroke="#144778" stroke-width="5" stroke-opacity="1" stroke-miterlimit="10"/><path stroke-linecap="round" transform="matrix(1.448391, 0, 0, 1.44631, -120.385183, -118.322174)" fill="none" stroke-linejoin="round" d="M 214.428753 109.930853 C 213.981058 101.439414 215.510234 92.850745 218.859857 85.039917 " stroke="#144778" stroke-width="5" stroke-opacity="1" stroke-miterlimit="10"/><path stroke-linecap="round" transform="matrix(1.448391, 0, 0, 1.44631, -120.385183, -118.322174)" fill="none" stroke-linejoin="round" d="M 253.94999 122.770644 C 258.030489 114.940911 262.380684 107.259723 266.989787 99.729783 C 267.569633 100.440104 267.750329 101.461021 267.450967 102.319888 " stroke="#144778" stroke-width="5" stroke-opacity="1" stroke-miterlimit="10"/><path stroke-linecap="round" transform="matrix(1.448391, 0, 0, 1.44631, -120.385183, -118.322174)" fill="none" stroke-linejoin="round" d="M 279.099132 144.73117 C 278.95889 145.079578 279.608858 145.109287 279.919008 144.901322 C 286.850192 140.29099 293.541348 135.318744 299.96011 130.030501 " stroke="#144778" stroke-width="5" stroke-opacity="1" stroke-miterlimit="10"/><path stroke-linecap="round" transform="matrix(1.448391, 0, 0, 1.44631, -120.385183, -118.322174)" fill="none" stroke-linejoin="round" d="M 174.699851 310.778778 C 181.328976 312.16971 188.219706 313.549839 194.811074 311.988754 " stroke="#144778" stroke-width="5" stroke-opacity="1" stroke-miterlimit="10"/><path stroke-linecap="round" transform="matrix(1.448391, 0, 0, 1.44631, -120.385183, -118.322174)" fill="none" stroke-linejoin="round" d="M 175.109788 298.260387 C 178.569987 298.68982 182.040973 299.111151 185.501171 299.540585 " stroke="#144778" stroke-width="5" stroke-opacity="1" stroke-miterlimit="10"/><path stroke-linecap="round" transform="matrix(1.448391, 0, 0, 1.44631, -120.385183, -118.322174)" fill="none" stroke-linejoin="round" d="M 215.920172 299.651319 C 218.449919 299.489269 220.990454 299.319116 223.520202 299.159767 C 227.490126 298.900486 231.611079 298.600693 235.071277 296.639883 " stroke="#144778" stroke-width="5" stroke-opacity="1" stroke-miterlimit="10"/><path stroke-linecap="round" transform="matrix(1.448391, 0, 0, 1.44631, -120.385183, -118.322174)" fill="none" stroke-linejoin="round" d="M 218.20989 314.570756 C 221.599967 312.820612 225.319074 311.699764 229.110998 311.281134 " stroke="#144778" stroke-width="5" stroke-opacity="1" stroke-miterlimit="10"/></svg>