<svg xmlns="http://www.w3.org/2000/svg" xmlns:xlink="http://www.w3.org/1999/xlink" width="500" zoomAndPan="magnify" viewBox="0 0 375 374.999991" height="500" preserveAspectRatio="xMidYMid meet" version="1.0"><defs><clipPath id="adcf933fea"><path d="M 188 362 L 243 362 L 243 364.546875 L 188 364.546875 Z M 188 362 " clip-rule="nonzero"/></clipPath><clipPath id="bb2fb8f8cd"><path d="M 171 10.546875 L 192 10.546875 L 192 13 L 171 13 Z M 171 10.546875 " clip-rule="nonzero"/></clipPath></defs><path fill="#ffffff" d="M 46.335938 69.613281 L 96.570312 69.613281 C 97.171875 69.613281 97.664062 69.128906 97.664062 68.523438 C 97.664062 67.921875 97.171875 67.429688 96.570312 67.429688 L 46.335938 67.429688 C 45.734375 67.429688 45.242188 67.921875 45.242188 68.523438 C 45.242188 69.128906 45.734375 69.613281 46.335938 69.613281 " fill-opacity="1" fill-rule="nonzero"/><path fill="#ffffff" d="M 87.105469 61.605469 L 130.058594 61.605469 C 130.664062 61.605469 131.148438 61.113281 131.148438 60.511719 C 131.148438 59.910156 130.664062 59.421875 130.058594 59.421875 L 87.105469 59.421875 C 86.503906 59.421875 86.015625 59.910156 86.015625 60.511719 C 86.015625 61.113281 86.503906 61.605469 87.105469 61.605469 " fill-opacity="1" fill-rule="nonzero"/><path fill="#ffffff" d="M 272.75 51.410156 L 325.894531 51.410156 C 326.496094 51.410156 326.988281 50.921875 326.988281 50.320312 C 326.988281 49.714844 326.496094 49.226562 325.894531 49.226562 L 272.75 49.226562 C 272.148438 49.226562 271.65625 49.714844 271.65625 50.320312 C 271.65625 50.921875 272.148438 51.410156 272.75 51.410156 " fill-opacity="1" fill-rule="nonzero"/><path fill="#ffffff" d="M 314.246094 57.234375 L 360.109375 57.234375 C 360.710938 57.234375 361.203125 56.746094 361.203125 56.144531 C 361.203125 55.542969 360.710938 55.050781 360.109375 55.050781 L 314.246094 55.050781 C 313.644531 55.050781 313.152344 55.542969 313.152344 56.144531 C 313.152344 56.746094 313.644531 57.234375 314.246094 57.234375 " fill-opacity="1" fill-rule="nonzero"/><path fill="#ffffff" d="M 341.183594 149.71875 L 371.761719 149.71875 C 372.363281 149.71875 372.851562 149.230469 372.851562 148.628906 C 372.851562 148.019531 372.363281 147.535156 371.761719 147.535156 L 341.183594 147.535156 C 340.578125 147.535156 340.09375 148.019531 340.09375 148.628906 C 340.09375 149.230469 340.578125 149.71875 341.183594 149.71875 " fill-opacity="1" fill-rule="nonzero"/><path fill="#ffffff" d="M 335.355469 159.914062 L 365.207031 159.914062 C 365.808594 159.914062 366.300781 159.421875 366.300781 158.820312 C 366.300781 158.21875 365.808594 157.726562 365.207031 157.726562 L 335.355469 157.726562 C 334.753906 157.726562 334.265625 158.21875 334.265625 158.820312 C 334.265625 159.421875 334.753906 159.914062 335.355469 159.914062 " fill-opacity="1" fill-rule="nonzero"/><path fill="#ffffff" d="M 9.933594 212.34375 L 44.878906 212.34375 C 45.484375 212.34375 45.972656 211.851562 45.972656 211.25 C 45.972656 210.648438 45.484375 210.160156 44.878906 210.160156 L 9.933594 210.160156 C 9.332031 210.160156 8.84375 210.648438 8.84375 211.25 C 8.84375 211.851562 9.332031 212.34375 9.933594 212.34375 " fill-opacity="1" fill-rule="nonzero"/><path fill="#ffffff" d="M 29.589844 218.167969 L 88.558594 218.167969 C 89.167969 218.167969 89.652344 217.683594 89.652344 217.074219 C 89.652344 216.472656 89.167969 215.984375 88.558594 215.984375 L 29.589844 215.984375 C 28.988281 215.984375 28.5 216.472656 28.5 217.074219 C 28.5 217.683594 28.988281 218.167969 29.589844 218.167969 " fill-opacity="1" fill-rule="nonzero"/><path fill="#ffffff" d="M 22.308594 320.84375 L 60.167969 320.84375 C 60.773438 320.84375 61.261719 320.359375 61.261719 319.753906 C 61.261719 319.152344 60.773438 318.660156 60.167969 318.660156 L 22.308594 318.660156 C 21.707031 318.660156 21.21875 319.152344 21.21875 319.753906 C 21.21875 320.359375 21.707031 320.84375 22.308594 320.84375 " fill-opacity="1" fill-rule="nonzero"/><path fill="#ffffff" d="M 53.617188 325.214844 L 76.183594 325.214844 C 76.785156 325.214844 77.277344 324.726562 77.277344 324.121094 C 77.277344 323.519531 76.785156 323.03125 76.183594 323.03125 L 53.617188 323.03125 C 53.015625 323.03125 52.523438 323.519531 52.523438 324.121094 C 52.523438 324.726562 53.015625 325.214844 53.617188 325.214844 " fill-opacity="1" fill-rule="nonzero"/><path fill="#ffffff" d="M 130.785156 359.441406 L 200.675781 359.441406 C 201.277344 359.441406 201.769531 358.953125 201.769531 358.351562 C 201.769531 357.746094 201.277344 357.257812 200.675781 357.257812 L 130.785156 357.257812 C 130.183594 357.257812 129.695312 357.746094 129.695312 358.351562 C 129.695312 358.953125 130.183594 359.441406 130.785156 359.441406 " fill-opacity="1" fill-rule="nonzero"/><g clip-path="url(#adcf933fea)"><path fill="#ffffff" d="M 189.753906 364.539062 L 241.441406 364.539062 C 242.050781 364.539062 242.535156 364.050781 242.535156 363.445312 C 242.535156 362.84375 242.050781 362.351562 241.441406 362.351562 L 189.753906 362.351562 C 189.152344 362.351562 188.664062 362.84375 188.664062 363.445312 C 188.664062 364.050781 189.152344 364.539062 189.753906 364.539062 " fill-opacity="1" fill-rule="nonzero"/></g><path fill="#ffffff" d="M 293.136719 331.769531 L 344.824219 331.769531 C 345.425781 331.769531 345.914062 331.28125 345.914062 330.675781 C 345.914062 330.074219 345.425781 329.582031 344.824219 329.582031 L 293.136719 329.582031 C 292.53125 329.582031 292.042969 330.074219 292.042969 330.675781 C 292.042969 331.28125 292.53125 331.769531 293.136719 331.769531 " fill-opacity="1" fill-rule="nonzero"/><path fill="#ffffff" d="M 318.613281 323.03125 L 340.453125 323.03125 C 341.054688 323.03125 341.546875 322.542969 341.546875 321.9375 C 341.546875 321.335938 341.054688 320.84375 340.453125 320.84375 L 318.613281 320.84375 C 318.011719 320.84375 317.523438 321.335938 317.523438 321.9375 C 317.523438 322.542969 318.011719 323.03125 318.613281 323.03125 " fill-opacity="1" fill-rule="nonzero"/><path fill="#ffffff" d="M 336.816406 207.246094 L 361.566406 207.246094 C 362.171875 207.246094 362.65625 206.757812 362.65625 206.152344 C 362.65625 205.550781 362.171875 205.058594 361.566406 205.058594 L 336.816406 205.058594 C 336.210938 205.058594 335.722656 205.550781 335.722656 206.152344 C 335.722656 206.757812 336.210938 207.246094 336.816406 207.246094 " fill-opacity="1" fill-rule="nonzero"/><path fill="#ffffff" d="M 344.09375 213.800781 L 360.109375 213.800781 C 360.710938 213.800781 361.203125 213.3125 361.203125 212.707031 C 361.203125 212.105469 360.710938 211.613281 360.109375 211.613281 L 344.09375 211.613281 C 343.492188 211.613281 343 212.105469 343 212.707031 C 343 213.3125 343.492188 213.800781 344.09375 213.800781 " fill-opacity="1" fill-rule="nonzero"/><path fill="#ffffff" d="M 122.050781 19.367188 L 208.683594 19.367188 C 209.289062 19.367188 209.773438 18.882812 209.773438 18.277344 C 209.773438 17.675781 209.289062 17.183594 208.683594 17.183594 L 122.050781 17.183594 C 121.449219 17.183594 120.957031 17.675781 120.957031 18.277344 C 120.957031 18.882812 121.449219 19.367188 122.050781 19.367188 " fill-opacity="1" fill-rule="nonzero"/><g clip-path="url(#bb2fb8f8cd)"><path fill="#ffffff" d="M 172.285156 12.8125 L 190.484375 12.8125 C 191.085938 12.8125 191.578125 12.328125 191.578125 11.722656 C 191.578125 11.121094 191.085938 10.628906 190.484375 10.628906 L 172.285156 10.628906 C 171.683594 10.628906 171.191406 11.121094 171.191406 11.722656 C 171.191406 12.328125 171.683594 12.8125 172.285156 12.8125 " fill-opacity="1" fill-rule="nonzero"/></g><path fill="#f9e71e" d="M 186.84375 304.199219 C 178.132812 304.199219 169.945312 300.8125 163.789062 294.652344 L 62.675781 193.515625 C 49.96875 180.800781 49.96875 160.109375 62.675781 147.398438 L 163.789062 46.261719 C 169.945312 40.101562 178.132812 36.707031 186.84375 36.707031 C 195.546875 36.707031 203.734375 40.101562 209.890625 46.261719 L 311.007812 147.398438 C 317.164062 153.554688 320.558594 161.742188 320.558594 170.457031 C 320.558594 179.164062 317.164062 187.351562 311.007812 193.515625 L 209.890625 294.652344 C 203.734375 300.8125 195.546875 304.199219 186.84375 304.199219 " fill-opacity="1" fill-rule="nonzero"/><path fill="#5a231c" d="M 186.84375 35.34375 C 177.769531 35.34375 169.238281 38.875 162.828125 45.296875 L 61.710938 146.433594 C 48.472656 159.679688 48.472656 181.230469 61.710938 194.480469 L 162.828125 295.621094 C 169.238281 302.03125 177.769531 305.566406 186.84375 305.566406 C 195.910156 305.566406 204.441406 302.03125 210.855469 295.621094 L 311.972656 194.480469 C 318.386719 188.0625 321.925781 179.527344 321.925781 170.457031 C 321.925781 161.382812 318.386719 152.851562 311.972656 146.433594 L 210.855469 45.296875 C 204.441406 38.875 195.910156 35.34375 186.84375 35.34375 Z M 186.84375 38.074219 C 194.832031 38.074219 202.824219 41.125 208.925781 47.226562 L 310.039062 148.363281 C 322.246094 160.566406 322.246094 180.34375 310.039062 192.550781 L 208.925781 293.6875 C 202.824219 299.785156 194.832031 302.835938 186.84375 302.835938 C 178.847656 302.835938 170.855469 299.785156 164.753906 293.6875 L 63.640625 192.550781 C 51.445312 180.34375 51.445312 160.566406 63.640625 148.363281 L 164.753906 47.226562 C 170.855469 41.125 178.847656 38.074219 186.84375 38.074219 " fill-opacity="1" fill-rule="nonzero"/><path fill="#c59f21" d="M 310.039062 148.363281 L 208.925781 47.226562 C 198.511719 36.8125 182.601562 35.316406 170.558594 42.683594 C 216.910156 57.429688 251.242188 101.339844 251.242188 152.058594 C 251.242188 214.175781 199.738281 266.050781 137.769531 266.691406 L 164.753906 293.6875 C 176.949219 305.886719 196.730469 305.886719 208.925781 293.6875 L 310.039062 192.550781 C 322.246094 180.34375 322.246094 160.566406 310.039062 148.363281 " fill-opacity="1" fill-rule="nonzero"/><path fill="#f9e71e" d="M 186.84375 285.101562 C 179.34375 285.101562 172.289062 282.179688 166.976562 276.871094 L 80.464844 190.324219 C 75.152344 185.015625 72.230469 177.957031 72.230469 170.457031 C 72.230469 162.945312 75.152344 155.894531 80.464844 150.585938 L 166.976562 64.042969 C 172.289062 58.734375 179.34375 55.8125 186.84375 55.8125 C 194.34375 55.8125 201.402344 58.734375 206.710938 64.042969 L 293.230469 150.585938 C 298.535156 155.894531 301.457031 162.945312 301.457031 170.457031 C 301.457031 177.957031 298.535156 185.015625 293.230469 190.324219 L 206.710938 276.871094 C 201.402344 282.179688 194.34375 285.101562 186.84375 285.101562 " fill-opacity="1" fill-rule="nonzero"/><path fill="#5a231c" d="M 186.84375 54.445312 C 178.976562 54.445312 171.578125 57.507812 166.011719 63.078125 L 79.5 149.621094 C 73.933594 155.183594 70.867188 162.585938 70.867188 170.457031 C 70.867188 178.324219 73.933594 185.722656 79.5 191.289062 L 166.011719 277.835938 C 171.578125 283.398438 178.976562 286.46875 186.84375 286.46875 C 194.710938 286.46875 202.109375 283.398438 207.675781 277.839844 L 294.191406 191.289062 C 299.757812 185.722656 302.824219 178.324219 302.824219 170.457031 C 302.824219 162.585938 299.757812 155.183594 294.191406 149.621094 L 207.675781 63.078125 C 202.109375 57.507812 194.710938 54.445312 186.84375 54.445312 Z M 186.84375 57.175781 C 193.683594 57.175781 200.527344 59.789062 205.746094 65.011719 L 292.265625 151.550781 C 302.703125 161.992188 302.703125 178.917969 292.265625 189.355469 L 205.746094 275.90625 C 200.527344 281.125 193.683594 283.738281 186.84375 283.738281 C 180.003906 283.738281 173.160156 281.125 167.945312 275.90625 L 81.429688 189.355469 C 70.984375 178.917969 70.984375 161.992188 81.429688 151.550781 L 167.945312 65.011719 C 173.160156 59.789062 180.003906 57.175781 186.84375 57.175781 " fill-opacity="1" fill-rule="nonzero"/><path fill="#c59f21" d="M 235.582031 94.84375 C 245.515625 111.765625 251.242188 131.34375 251.242188 152.058594 C 251.242188 207.664062 209.972656 255.023438 156.863281 264.816406 L 167.945312 275.90625 C 178.382812 286.34375 195.300781 286.34375 205.746094 275.90625 L 292.265625 189.355469 C 302.703125 178.917969 302.703125 161.992188 292.265625 151.550781 L 235.582031 94.84375 " fill-opacity="1" fill-rule="nonzero"/><path fill="#5a231c" d="M 145.699219 165.550781 L 145.699219 136.898438 L 133.644531 165.550781 Z M 122.476562 165.550781 L 144.59375 113.226562 L 157.871094 113.226562 L 157.871094 165.550781 L 163.617188 165.550781 L 163.617188 176.613281 L 157.871094 176.613281 L 157.871094 190.664062 L 145.699219 190.664062 L 145.699219 176.613281 L 122.476562 176.613281 L 122.476562 165.550781 " fill-opacity="1" fill-rule="nonzero"/><path fill="#5a231c" d="M 180.324219 172.851562 C 180.324219 178.382812 182.746094 180.484375 186.621094 180.484375 C 190.488281 180.484375 192.929688 178.382812 192.929688 172.851562 L 192.929688 131.03125 C 192.929688 125.496094 190.488281 123.402344 186.621094 123.402344 C 182.746094 123.402344 180.324219 125.496094 180.324219 131.03125 Z M 168.148438 131.804688 C 168.148438 119.417969 174.675781 112.335938 186.621094 112.335938 C 198.5625 112.335938 205.09375 119.417969 205.09375 131.804688 L 205.09375 172.078125 C 205.09375 184.46875 198.5625 191.550781 186.621094 191.550781 C 174.675781 191.550781 168.148438 184.46875 168.148438 172.078125 L 168.148438 131.804688 " fill-opacity="1" fill-rule="nonzero"/><path fill="#5a231c" d="M 233.300781 165.550781 L 233.300781 136.898438 L 221.246094 165.550781 Z M 210.070312 165.550781 L 232.195312 113.226562 L 245.464844 113.226562 L 245.464844 165.550781 L 251.21875 165.550781 L 251.21875 176.613281 L 245.464844 176.613281 L 245.464844 190.664062 L 233.300781 190.664062 L 233.300781 176.613281 L 210.070312 176.613281 L 210.070312 165.550781 " fill-opacity="1" fill-rule="nonzero"/><path fill="#5a231c" d="M 147.554688 209.378906 L 154.570312 209.378906 L 154.570312 214.03125 L 147.554688 214.03125 L 147.554688 223.554688 L 156.386719 223.554688 L 156.386719 228.203125 L 142.445312 228.203125 L 142.445312 195.660156 L 156.386719 195.660156 L 156.386719 200.316406 L 147.554688 200.316406 L 147.554688 209.378906 " fill-opacity="1" fill-rule="nonzero"/><path fill="#5a231c" d="M 164.664062 200.316406 L 164.664062 210.304688 L 166.664062 210.304688 C 168.566406 210.304688 169.726562 209.46875 169.726562 206.867188 L 169.726562 203.65625 C 169.726562 201.335938 168.9375 200.316406 167.128906 200.316406 Z M 170.238281 228.203125 C 169.960938 227.367188 169.78125 226.855469 169.78125 224.210938 L 169.78125 219.089844 C 169.78125 216.074219 168.753906 214.957031 166.429688 214.957031 L 164.664062 214.957031 L 164.664062 228.203125 L 159.558594 228.203125 L 159.558594 195.660156 L 167.265625 195.660156 C 172.574219 195.660156 174.847656 198.132812 174.847656 203.144531 L 174.847656 205.703125 C 174.847656 209.054688 173.78125 211.234375 171.496094 212.304688 C 174.054688 213.375 174.886719 215.839844 174.886719 219.230469 L 174.886719 224.253906 C 174.886719 225.832031 174.941406 226.992188 175.449219 228.203125 L 170.238281 228.203125 " fill-opacity="1" fill-rule="nonzero"/><path fill="#5a231c" d="M 183.351562 200.316406 L 183.351562 210.304688 L 185.363281 210.304688 C 187.261719 210.304688 188.425781 209.46875 188.425781 206.867188 L 188.425781 203.65625 C 188.425781 201.335938 187.636719 200.316406 185.820312 200.316406 Z M 188.9375 228.203125 C 188.65625 227.367188 188.476562 226.855469 188.476562 224.210938 L 188.476562 219.089844 C 188.476562 216.074219 187.449219 214.957031 185.125 214.957031 L 183.351562 214.957031 L 183.351562 228.203125 L 178.246094 228.203125 L 178.246094 195.660156 L 185.960938 195.660156 C 191.261719 195.660156 193.535156 198.132812 193.535156 203.144531 L 193.535156 205.703125 C 193.535156 209.054688 192.46875 211.234375 190.195312 212.304688 C 192.742188 213.375 193.582031 215.839844 193.582031 219.230469 L 193.582031 224.253906 C 193.582031 225.832031 193.628906 226.992188 194.140625 228.203125 L 188.9375 228.203125 " fill-opacity="1" fill-rule="nonzero"/><path fill="#5a231c" d="M 201.636719 220.71875 C 201.636719 223.046875 202.660156 223.929688 204.28125 223.929688 C 205.914062 223.929688 206.9375 223.046875 206.9375 220.71875 L 206.9375 203.144531 C 206.9375 200.824219 205.914062 199.941406 204.28125 199.941406 C 202.660156 199.941406 201.636719 200.824219 201.636719 203.144531 Z M 196.511719 203.472656 C 196.511719 198.261719 199.269531 195.289062 204.28125 195.289062 C 209.300781 195.289062 212.046875 198.261719 212.046875 203.472656 L 212.046875 220.394531 C 212.046875 225.601562 209.300781 228.574219 204.28125 228.574219 C 199.269531 228.574219 196.511719 225.601562 196.511719 220.394531 L 196.511719 203.472656 " fill-opacity="1" fill-rule="nonzero"/><path fill="#5a231c" d="M 220.464844 200.316406 L 220.464844 210.304688 L 222.46875 210.304688 C 224.371094 210.304688 225.535156 209.46875 225.535156 206.867188 L 225.535156 203.65625 C 225.535156 201.335938 224.742188 200.316406 222.933594 200.316406 Z M 226.042969 228.203125 C 225.769531 227.367188 225.578125 226.855469 225.578125 224.210938 L 225.578125 219.089844 C 225.578125 216.074219 224.554688 214.957031 222.234375 214.957031 L 220.464844 214.957031 L 220.464844 228.203125 L 215.359375 228.203125 L 215.359375 195.660156 L 223.070312 195.660156 C 228.367188 195.660156 230.652344 198.132812 230.652344 203.144531 L 230.652344 205.703125 C 230.652344 209.054688 229.574219 211.234375 227.296875 212.304688 C 229.859375 213.375 230.699219 215.839844 230.699219 219.230469 L 230.699219 224.253906 C 230.699219 225.832031 230.742188 226.992188 231.253906 228.203125 L 226.042969 228.203125 " fill-opacity="1" fill-rule="nonzero"/><path fill="#5a231c" d="M 192.890625 72.488281 C 192.890625 75.828125 190.183594 78.53125 186.847656 78.53125 C 183.515625 78.53125 180.804688 75.828125 180.804688 72.488281 C 180.804688 69.148438 183.515625 66.441406 186.847656 66.441406 C 190.183594 66.441406 192.890625 69.148438 192.890625 72.488281 " fill-opacity="1" fill-rule="nonzero"/><path fill="#5a231c" d="M 192.890625 267.734375 C 192.890625 271.074219 190.183594 273.777344 186.847656 273.777344 C 183.515625 273.777344 180.804688 271.074219 180.804688 267.734375 C 180.804688 264.398438 183.515625 261.691406 186.847656 261.691406 C 190.183594 261.691406 192.890625 264.398438 192.890625 267.734375 " fill-opacity="1" fill-rule="nonzero"/><path fill="#f25429" d="M 247.679688 291.039062 C 247.1875 291.039062 246.742188 290.777344 246.5 290.355469 C 246.253906 289.933594 246.253906 289.410156 246.5 288.988281 L 299.417969 197.289062 C 299.660156 196.871094 300.113281 196.609375 300.601562 196.609375 C 301.089844 196.609375 301.542969 196.871094 301.785156 197.289062 L 354.707031 288.988281 C 354.949219 289.410156 354.949219 289.933594 354.707031 290.355469 C 354.464844 290.777344 354.015625 291.039062 353.523438 291.039062 L 247.679688 291.039062 " fill-opacity="1" fill-rule="nonzero"/><path fill="#5a231c" d="M 300.601562 195.242188 C 299.628906 195.242188 298.726562 195.765625 298.238281 196.609375 L 271.777344 242.460938 L 245.316406 288.304688 C 244.824219 289.152344 244.824219 290.191406 245.316406 291.039062 C 245.804688 291.882812 246.703125 292.402344 247.679688 292.402344 L 353.523438 292.402344 C 354.5 292.402344 355.402344 291.882812 355.886719 291.039062 C 356.378906 290.191406 356.378906 289.152344 355.886719 288.304688 L 329.433594 242.460938 L 302.96875 196.609375 C 302.476562 195.765625 301.578125 195.242188 300.601562 195.242188 Z M 300.601562 197.972656 L 327.070312 243.824219 L 353.523438 289.671875 L 247.679688 289.671875 L 274.140625 243.824219 L 300.601562 197.972656 " fill-opacity="1" fill-rule="nonzero"/><path fill="#ad4127" d="M 327.070312 243.824219 L 321.292969 233.820312 C 319.980469 255.703125 301.371094 273.53125 279.214844 273.53125 C 272.246094 273.53125 265.636719 271.765625 259.796875 268.667969 L 247.679688 289.671875 L 353.523438 289.671875 L 327.070312 243.824219 " fill-opacity="1" fill-rule="nonzero"/><path fill="#f25429" d="M 228.910156 304.199219 C 228.15625 304.199219 227.546875 303.589844 227.546875 302.835938 L 227.546875 282.148438 C 227.546875 281.394531 228.15625 280.785156 228.910156 280.785156 L 372.292969 280.785156 C 373.042969 280.785156 373.660156 281.394531 373.660156 282.148438 L 373.660156 302.835938 C 373.660156 303.589844 373.042969 304.199219 372.292969 304.199219 L 228.910156 304.199219 " fill-opacity="1" fill-rule="nonzero"/><path fill="#5a231c" d="M 372.292969 279.417969 L 228.910156 279.417969 C 227.402344 279.417969 226.179688 280.640625 226.179688 282.148438 L 226.179688 302.835938 C 226.179688 304.34375 227.402344 305.566406 228.910156 305.566406 L 372.292969 305.566406 C 373.800781 305.566406 375.023438 304.34375 375.023438 302.835938 L 375.023438 282.148438 C 375.023438 280.640625 373.800781 279.417969 372.292969 279.417969 Z M 372.292969 282.148438 L 372.292969 302.835938 L 228.910156 302.835938 L 228.910156 282.148438 L 372.292969 282.148438 " fill-opacity="1" fill-rule="nonzero"/><path fill="#ffffff" d="M 247.949219 290.566406 C 247.457031 290.566406 247.011719 290.308594 246.765625 289.886719 C 246.519531 289.460938 246.519531 288.941406 246.765625 288.519531 L 259.929688 265.714844 C 260.179688 265.292969 260.625 265.03125 261.113281 265.03125 L 340.09375 265.03125 C 340.582031 265.03125 341.03125 265.292969 341.277344 265.714844 L 354.4375 288.519531 C 354.683594 288.941406 354.683594 289.460938 354.4375 289.886719 C 354.195312 290.308594 353.746094 290.566406 353.257812 290.566406 L 247.949219 290.566406 " fill-opacity="1" fill-rule="nonzero"/><path fill="#5a231c" d="M 340.09375 263.664062 L 261.113281 263.664062 C 260.140625 263.664062 259.238281 264.1875 258.75 265.03125 L 245.585938 287.835938 C 245.09375 288.683594 245.09375 289.722656 245.585938 290.566406 C 246.070312 291.414062 246.972656 291.933594 247.949219 291.933594 L 353.257812 291.933594 C 354.234375 291.933594 355.132812 291.414062 355.621094 290.566406 C 356.109375 289.722656 356.109375 288.683594 355.621094 287.835938 L 342.460938 265.03125 C 341.96875 264.1875 341.070312 263.664062 340.09375 263.664062 Z M 340.09375 266.394531 L 353.257812 289.203125 L 247.949219 289.203125 L 261.113281 266.394531 L 340.09375 266.394531 " fill-opacity="1" fill-rule="nonzero"/><path fill="#bdbcbc" d="M 249.332031 286.804688 L 247.949219 289.203125 L 353.257812 289.203125 L 350.859375 285.046875 L 340.09375 266.394531 L 302.417969 266.394531 C 295.734375 270.886719 287.738281 273.53125 279.214844 273.53125 C 272.25 273.53125 265.636719 271.765625 259.804688 268.667969 L 249.332031 286.804688 " fill-opacity="1" fill-rule="nonzero"/><path fill="#ffffff" d="M 274.277344 244.957031 C 273.789062 244.957031 273.339844 244.695312 273.09375 244.273438 C 272.851562 243.851562 272.851562 243.328125 273.09375 242.90625 L 286.253906 220.101562 C 286.496094 219.679688 286.949219 219.417969 287.4375 219.417969 L 313.769531 219.417969 C 314.253906 219.417969 314.707031 219.679688 314.949219 220.101562 L 328.113281 242.90625 C 328.355469 243.328125 328.355469 243.851562 328.109375 244.273438 C 327.867188 244.695312 327.414062 244.957031 326.929688 244.957031 L 274.277344 244.957031 " fill-opacity="1" fill-rule="nonzero"/><path fill="#5a231c" d="M 313.769531 218.054688 L 287.4375 218.054688 C 286.464844 218.054688 285.558594 218.574219 285.074219 219.417969 L 271.914062 242.226562 C 271.425781 243.070312 271.425781 244.109375 271.914062 244.957031 C 272.398438 245.800781 273.304688 246.320312 274.277344 246.320312 L 326.929688 246.320312 C 327.90625 246.320312 328.804688 245.800781 329.296875 244.957031 C 329.78125 244.109375 329.78125 243.070312 329.296875 242.226562 L 316.132812 219.417969 C 315.644531 218.574219 314.742188 218.054688 313.769531 218.054688 Z M 313.769531 220.785156 L 326.929688 243.589844 L 274.277344 243.589844 L 287.4375 220.785156 L 313.769531 220.785156 " fill-opacity="1" fill-rule="nonzero"/><path fill="#bdbcbc" d="M 326.929688 243.589844 L 323.839844 238.234375 L 321.292969 233.820312 C 321.089844 237.191406 320.472656 240.460938 319.5 243.589844 L 326.929688 243.589844 " fill-opacity="1" fill-rule="nonzero"/><path fill="#a0a4a3" d="M 93.566406 295.132812 C 92.8125 295.132812 92.203125 294.519531 92.203125 293.769531 L 92.203125 276.828125 C 92.203125 276.074219 92.8125 275.464844 93.566406 275.464844 L 168.832031 275.464844 C 169.585938 275.464844 170.199219 276.074219 170.199219 276.828125 L 170.199219 293.769531 C 170.199219 294.519531 169.585938 295.132812 168.832031 295.132812 L 93.566406 295.132812 " fill-opacity="1" fill-rule="nonzero"/><path fill="#5a231c" d="M 168.832031 274.097656 L 93.566406 274.097656 C 92.058594 274.097656 90.839844 275.324219 90.839844 276.828125 L 90.839844 293.769531 C 90.839844 295.273438 92.058594 296.5 93.566406 296.5 L 168.832031 296.5 C 170.34375 296.5 171.5625 295.273438 171.5625 293.769531 L 171.5625 276.828125 C 171.5625 275.324219 170.34375 274.097656 168.832031 274.097656 Z M 168.832031 276.828125 L 168.832031 293.769531 L 93.566406 293.769531 L 93.566406 276.828125 L 168.832031 276.828125 " fill-opacity="1" fill-rule="nonzero"/><path fill="#5c6065" d="M 168.832031 284.089844 C 164.046875 288.773438 157.535156 291.695312 150.433594 291.695312 C 140.152344 291.695312 116.109375 285.570312 111.753906 276.828125 L 93.566406 276.828125 L 93.566406 293.769531 L 168.832031 293.769531 L 168.832031 284.089844 " fill-opacity="1" fill-rule="nonzero"/><path fill="#a0a4a3" d="M 178.429688 304.199219 C 168.007812 304.199219 159.53125 295.722656 159.53125 285.296875 C 159.53125 274.875 168.007812 266.390625 178.429688 266.390625 C 185.578125 266.390625 192.039062 270.355469 195.28125 276.738281 C 195.492188 277.160156 195.476562 277.664062 195.222656 278.070312 C 194.976562 278.476562 194.539062 278.722656 194.0625 278.722656 L 177.828125 278.722656 C 176.511719 278.722656 175.441406 279.792969 175.441406 281.113281 L 175.441406 289.484375 C 175.441406 290.800781 176.511719 291.871094 177.828125 291.871094 L 194.0625 291.871094 C 194.539062 291.871094 194.976562 292.117188 195.222656 292.523438 C 195.476562 292.925781 195.492188 293.429688 195.28125 293.859375 C 192.039062 300.238281 185.578125 304.199219 178.429688 304.199219 " fill-opacity="1" fill-rule="nonzero"/><path fill="#5a231c" d="M 178.429688 265.027344 C 167.257812 265.027344 158.167969 274.121094 158.167969 285.296875 C 158.167969 296.472656 167.257812 305.566406 178.429688 305.566406 C 186.058594 305.566406 192.945312 301.359375 196.445312 294.578125 C 196.667969 294.183594 196.792969 293.726562 196.792969 293.234375 C 196.792969 291.726562 195.578125 290.503906 194.066406 290.503906 L 177.828125 290.503906 C 177.261719 290.503906 176.804688 290.046875 176.804688 289.484375 L 176.804688 281.113281 C 176.804688 280.546875 177.261719 280.089844 177.828125 280.089844 L 194.0625 280.089844 C 195.011719 280.089844 195.894531 279.59375 196.390625 278.78125 C 196.886719 277.976562 196.925781 276.964844 196.496094 276.121094 C 193.019531 269.277344 186.097656 265.027344 178.429688 265.027344 Z M 194.0625 293.234375 L 194.066406 293.234375 M 178.429688 267.757812 C 185.253906 267.757812 191.167969 271.660156 194.0625 277.359375 L 177.828125 277.359375 C 175.75 277.359375 174.074219 279.039062 174.074219 281.113281 L 174.074219 289.484375 C 174.074219 291.554688 175.75 293.234375 177.828125 293.234375 L 194.0625 293.234375 C 191.167969 298.929688 185.253906 302.835938 178.429688 302.835938 C 168.746094 302.835938 160.898438 294.984375 160.898438 285.296875 C 160.898438 275.609375 168.746094 267.757812 178.429688 267.757812 " fill-opacity="1" fill-rule="nonzero"/><path fill="#5c6065" d="M 187.953125 300.019531 C 175.210938 298.234375 165.136719 287.082031 165.089844 273.921875 C 162.476562 276.980469 160.898438 280.953125 160.898438 285.296875 C 160.898438 294.984375 168.746094 302.835938 178.429688 302.835938 C 181.941406 302.835938 185.207031 301.796875 187.953125 300.019531 " fill-opacity="1" fill-rule="nonzero"/><path fill="#a0a4a3" d="M 84.476562 304.199219 C 77.332031 304.199219 70.875 300.238281 67.628906 293.859375 C 67.410156 293.429688 67.433594 292.925781 67.683594 292.523438 C 67.929688 292.117188 68.371094 291.871094 68.84375 291.871094 L 85.078125 291.871094 C 86.398438 291.871094 87.46875 290.796875 87.46875 289.484375 L 87.46875 281.113281 C 87.46875 279.792969 86.398438 278.722656 85.078125 278.722656 L 68.84375 278.722656 C 68.371094 278.722656 67.929688 278.476562 67.683594 278.070312 C 67.433594 277.664062 67.410156 277.160156 67.628906 276.738281 C 70.875 270.355469 77.332031 266.390625 84.476562 266.390625 C 94.898438 266.390625 103.378906 274.875 103.378906 285.296875 C 103.378906 295.722656 94.898438 304.199219 84.476562 304.199219 " fill-opacity="1" fill-rule="nonzero"/><path fill="#5a231c" d="M 84.476562 265.027344 C 76.816406 265.027344 69.894531 269.277344 66.414062 276.117188 C 65.980469 276.964844 66.019531 277.976562 66.519531 278.78125 C 67.015625 279.59375 67.898438 280.089844 68.84375 280.089844 L 85.078125 280.089844 C 85.648438 280.089844 86.101562 280.546875 86.101562 281.113281 L 86.101562 289.484375 C 86.101562 290.046875 85.648438 290.503906 85.078125 290.503906 L 68.84375 290.503906 C 67.898438 290.503906 67.015625 291 66.519531 291.808594 C 66.019531 292.621094 65.980469 293.628906 66.414062 294.476562 C 69.894531 301.316406 76.816406 305.566406 84.476562 305.566406 C 95.652344 305.566406 104.746094 296.472656 104.746094 285.296875 C 104.746094 274.121094 95.652344 265.027344 84.476562 265.027344 Z M 84.476562 267.757812 C 94.164062 267.757812 102.015625 275.609375 102.015625 285.296875 C 102.015625 294.984375 94.164062 302.835938 84.476562 302.835938 C 77.652344 302.835938 71.742188 298.929688 68.84375 293.234375 L 85.078125 293.234375 C 87.152344 293.234375 88.832031 291.554688 88.832031 289.484375 L 88.832031 281.113281 C 88.832031 279.039062 87.152344 277.359375 85.078125 277.359375 L 68.84375 277.359375 C 71.742188 271.660156 77.652344 267.757812 84.476562 267.757812 " fill-opacity="1" fill-rule="nonzero"/><path fill="#5c6065" d="M 75.386719 270.304688 C 72.605469 272.003906 70.328125 274.4375 68.84375 277.359375 L 76.582031 277.359375 C 75.871094 275.113281 75.460938 272.746094 75.386719 270.304688 " fill-opacity="1" fill-rule="nonzero"/><path fill="#5c6065" d="M 98.546875 295.769531 C 94.703125 295.277344 91.089844 293.9375 87.917969 291.941406 C 87.226562 292.730469 86.214844 293.234375 85.078125 293.234375 L 68.84375 293.234375 C 71.742188 298.929688 77.652344 302.835938 84.476562 302.835938 C 90.242188 302.835938 95.351562 300.0625 98.546875 295.769531 " fill-opacity="1" fill-rule="nonzero"/><path fill="#5a231c" d="M 154.273438 281.359375 L 109.316406 281.359375 C 108.5625 281.359375 107.953125 281.972656 107.953125 282.726562 C 107.953125 283.480469 108.5625 284.089844 109.316406 284.089844 L 154.273438 284.089844 C 155.027344 284.089844 155.636719 283.480469 155.636719 282.726562 C 155.636719 281.972656 155.027344 281.359375 154.273438 281.359375 " fill-opacity="1" fill-rule="nonzero"/><path fill="#5a231c" d="M 154.273438 286.496094 L 109.316406 286.496094 C 108.5625 286.496094 107.953125 287.113281 107.953125 287.863281 C 107.953125 288.617188 108.5625 289.226562 109.316406 289.226562 L 154.273438 289.226562 C 155.027344 289.226562 155.636719 288.617188 155.636719 287.863281 C 155.636719 287.113281 155.027344 286.496094 154.273438 286.496094 " fill-opacity="1" fill-rule="nonzero"/><path fill="#a0a4a3" d="M 16.300781 293.917969 L 50.46875 274.386719 L 47.867188 269.832031 L 13.695312 289.359375 L 12.996094 288.144531 L 1.394531 293.566406 L 6.6875 302.835938 L 16.996094 295.136719 L 16.300781 293.917969 " fill-opacity="1" fill-rule="nonzero"/><path fill="#5a231c" d="M 16.300781 293.917969 L 16.972656 295.105469 L 51.144531 275.574219 C 51.796875 275.203125 52.023438 274.367188 51.652344 273.714844 L 49.050781 269.15625 C 48.867188 268.835938 48.574219 268.609375 48.222656 268.515625 C 47.871094 268.417969 47.503906 268.464844 47.1875 268.644531 L 14.199219 287.5 L 14.183594 287.464844 C 13.828125 286.851562 13.0625 286.609375 12.421875 286.90625 L 0.816406 292.332031 C 0.46875 292.492188 0.210938 292.789062 0.09375 293.152344 C -0.0195312 293.515625 0.0195312 293.914062 0.210938 294.246094 L 5.503906 303.511719 C 5.695312 303.855469 6.027344 304.09375 6.40625 304.175781 C 6.789062 304.25 7.191406 304.160156 7.503906 303.929688 L 17.808594 296.230469 C 18.359375 295.816406 18.523438 295.054688 18.179688 294.460938 L 17.484375 293.238281 L 16.300781 293.917969 L 16.972656 295.105469 L 16.300781 293.917969 L 15.113281 294.597656 L 15.207031 294.761719 L 7.105469 300.816406 L 3.316406 294.175781 L 12.4375 289.910156 L 12.511719 290.039062 C 12.886719 290.691406 13.71875 290.917969 14.371094 290.546875 L 47.355469 271.695312 L 48.601562 273.878906 L 15.621094 292.730469 C 14.964844 293.105469 14.738281 293.941406 15.113281 294.597656 L 16.300781 293.917969 " fill-opacity="1" fill-rule="nonzero"/><path fill="#f9e71e" d="M 56.832031 280.03125 C 53.503906 280.03125 50.417969 278.242188 48.769531 275.355469 L 46.167969 270.804688 C 43.632812 266.363281 45.179688 260.683594 49.617188 258.148438 L 81.214844 240.089844 C 82.617188 239.289062 84.203125 238.867188 85.808594 238.867188 C 89.132812 238.867188 92.21875 240.660156 93.871094 243.542969 L 96.46875 248.097656 C 97.699219 250.246094 98.015625 252.746094 97.363281 255.136719 C 96.710938 257.53125 95.167969 259.523438 93.019531 260.753906 L 61.421875 278.8125 C 60.023438 279.609375 58.4375 280.03125 56.832031 280.03125 " fill-opacity="1" fill-rule="nonzero"/><path fill="#5a231c" d="M 85.808594 237.5 C 83.96875 237.5 82.144531 237.988281 80.539062 238.90625 L 48.941406 256.960938 C 43.851562 259.871094 42.074219 266.382812 44.980469 271.480469 L 47.582031 276.035156 C 49.472656 279.347656 53.015625 281.398438 56.832031 281.398438 C 58.671875 281.398438 60.496094 280.917969 62.101562 279.996094 L 93.695312 261.9375 C 96.160156 260.53125 97.933594 258.242188 98.683594 255.5 C 99.429688 252.753906 99.0625 249.882812 97.65625 247.417969 L 95.058594 242.867188 C 93.164062 239.558594 89.621094 237.5 85.808594 237.5 Z M 85.808594 240.230469 C 88.554688 240.230469 91.226562 241.664062 92.683594 244.222656 L 95.28125 248.769531 C 97.449219 252.566406 96.132812 257.402344 92.339844 259.570312 L 60.746094 277.625 C 59.511719 278.335938 58.164062 278.667969 56.832031 278.667969 C 54.085938 278.667969 51.414062 277.234375 49.953125 274.683594 L 47.355469 270.128906 C 45.1875 266.332031 46.503906 261.503906 50.296875 259.335938 L 81.894531 241.277344 C 83.128906 240.570312 84.476562 240.230469 85.808594 240.230469 " fill-opacity="1" fill-rule="nonzero"/><path fill="#c59f21" d="M 95.28125 248.769531 L 92.683594 244.222656 C 92.113281 243.21875 91.355469 242.394531 90.476562 241.757812 C 91.890625 250.023438 88.121094 258.796875 80.507812 263.148438 C 71.453125 268.324219 59.765625 265.640625 53.753906 257.363281 L 50.296875 259.335938 C 46.503906 261.503906 45.1875 266.332031 47.355469 270.128906 L 49.953125 274.683594 C 52.117188 278.472656 56.953125 279.792969 60.746094 277.625 L 92.339844 259.570312 C 96.132812 257.402344 97.449219 252.566406 95.28125 248.769531 " fill-opacity="1" fill-rule="nonzero"/><path fill="#ffffff" d="M 87.164062 244.382812 L 50.714844 265.21875 " fill-opacity="1" fill-rule="nonzero"/><path fill="#5a231c" d="M 86.488281 243.199219 L 50.035156 264.03125 C 49.378906 264.402344 49.152344 265.238281 49.527344 265.894531 C 49.90625 266.550781 50.734375 266.777344 51.390625 266.402344 L 87.84375 245.566406 C 88.496094 245.195312 88.726562 244.359375 88.351562 243.707031 C 87.976562 243.046875 87.144531 242.820312 86.488281 243.199219 " fill-opacity="1" fill-rule="nonzero"/><path fill="#ffffff" d="M 90.320312 248.589844 L 52.320312 270.3125 " fill-opacity="1" fill-rule="nonzero"/><path fill="#5a231c" d="M 89.644531 247.40625 L 51.640625 269.128906 C 50.988281 269.5 50.757812 270.335938 51.132812 270.988281 C 51.507812 271.644531 52.339844 271.871094 52.996094 271.496094 L 90.996094 249.777344 C 91.652344 249.402344 91.878906 248.570312 91.507812 247.914062 C 91.132812 247.257812 90.296875 247.027344 89.644531 247.40625 " fill-opacity="1" fill-rule="nonzero"/><path fill="#ffffff" d="M 92.34375 253.445312 L 55.890625 274.28125 " fill-opacity="1" fill-rule="nonzero"/><path fill="#5a231c" d="M 91.664062 252.261719 L 55.214844 273.09375 C 54.558594 273.464844 54.332031 274.300781 54.707031 274.957031 C 55.078125 275.613281 55.914062 275.839844 56.566406 275.464844 L 93.023438 254.632812 C 93.675781 254.257812 93.90625 253.425781 93.53125 252.769531 C 93.15625 252.113281 92.324219 251.882812 91.664062 252.261719 " fill-opacity="1" fill-rule="nonzero"/><path fill="#5a231c" d="M 107.292969 325.113281 L 107.292969 333.15625 L 109.058594 333.15625 C 110.242188 333.15625 110.886719 332.613281 110.886719 330.914062 L 110.886719 327.351562 C 110.886719 325.652344 110.242188 325.113281 109.058594 325.113281 Z M 114.621094 327.589844 L 114.621094 330.675781 C 114.621094 334.476562 112.789062 336.546875 109.058594 336.546875 L 107.292969 336.546875 L 107.292969 345.472656 L 103.558594 345.472656 L 103.558594 321.71875 L 109.058594 321.71875 C 112.789062 321.71875 114.621094 323.789062 114.621094 327.589844 " fill-opacity="1" fill-rule="nonzero"/><path fill="#5a231c" d="M 119.46875 337.9375 L 123.066406 337.9375 L 121.269531 325.925781 Z M 127.988281 345.472656 L 124.222656 345.472656 L 123.578125 341.164062 L 118.996094 341.164062 L 118.351562 345.472656 L 114.925781 345.472656 L 118.726562 321.71875 L 124.1875 321.71875 L 127.988281 345.472656 " fill-opacity="1" fill-rule="nonzero"/><path fill="#5a231c" d="M 135.28125 332.238281 L 140.503906 332.238281 L 140.503906 339.773438 C 140.503906 343.570312 138.605469 345.746094 134.941406 345.746094 C 131.277344 345.746094 129.378906 343.570312 129.378906 339.773438 L 129.378906 327.421875 C 129.378906 323.617188 131.277344 321.445312 134.941406 321.445312 C 138.605469 321.445312 140.503906 323.617188 140.503906 327.421875 L 140.503906 329.730469 L 136.976562 329.730469 L 136.976562 327.179688 C 136.976562 325.488281 136.230469 324.839844 135.042969 324.839844 C 133.855469 324.839844 133.113281 325.488281 133.113281 327.179688 L 133.113281 340.007812 C 133.113281 341.707031 133.855469 342.316406 135.042969 342.316406 C 136.230469 342.316406 136.976562 341.707031 136.976562 340.007812 L 136.976562 335.632812 L 135.28125 335.632812 L 135.28125 332.238281 " fill-opacity="1" fill-rule="nonzero"/><path fill="#5a231c" d="M 146.640625 331.730469 L 151.769531 331.730469 L 151.769531 335.121094 L 146.640625 335.121094 L 146.640625 342.082031 L 153.085938 342.082031 L 153.085938 345.472656 L 142.914062 345.472656 L 142.914062 321.71875 L 153.085938 321.71875 L 153.085938 325.113281 L 146.640625 325.113281 L 146.640625 331.730469 " fill-opacity="1" fill-rule="nonzero"/><path fill="#5a231c" d="M 163.976562 328.269531 L 163.976562 345.472656 L 160.621094 345.472656 L 160.621094 321.71875 L 165.300781 321.71875 L 169.136719 335.9375 L 169.136719 321.71875 L 172.460938 321.71875 L 172.460938 345.472656 L 168.628906 345.472656 L 163.976562 328.269531 " fill-opacity="1" fill-rule="nonzero"/><path fill="#5a231c" d="M 178.566406 340.007812 C 178.566406 341.707031 179.3125 342.351562 180.5 342.351562 C 181.6875 342.351562 182.4375 341.707031 182.4375 340.007812 L 182.4375 327.179688 C 182.4375 325.488281 181.6875 324.839844 180.5 324.839844 C 179.3125 324.839844 178.566406 325.488281 178.566406 327.179688 Z M 174.835938 327.421875 C 174.835938 323.617188 176.835938 321.445312 180.5 321.445312 C 184.164062 321.445312 186.167969 323.617188 186.167969 327.421875 L 186.167969 339.773438 C 186.167969 343.570312 184.164062 345.746094 180.5 345.746094 C 176.835938 345.746094 174.835938 343.570312 174.835938 339.773438 L 174.835938 327.421875 " fill-opacity="1" fill-rule="nonzero"/><path fill="#5a231c" d="M 187.488281 321.71875 L 199.023438 321.71875 L 199.023438 325.113281 L 195.121094 325.113281 L 195.121094 345.472656 L 191.390625 345.472656 L 191.390625 325.113281 L 187.488281 325.113281 L 187.488281 321.71875 " fill-opacity="1" fill-rule="nonzero"/><path fill="#5a231c" d="M 209.640625 332.273438 L 214.457031 332.273438 L 214.457031 335.667969 L 209.640625 335.667969 L 209.640625 345.472656 L 205.910156 345.472656 L 205.910156 321.71875 L 215.78125 321.71875 L 215.78125 325.113281 L 209.640625 325.113281 L 209.640625 332.273438 " fill-opacity="1" fill-rule="nonzero"/><path fill="#5a231c" d="M 221.007812 340.007812 C 221.007812 341.707031 221.75 342.351562 222.9375 342.351562 C 224.125 342.351562 224.871094 341.707031 224.871094 340.007812 L 224.871094 327.179688 C 224.871094 325.488281 224.125 324.839844 222.9375 324.839844 C 221.75 324.839844 221.007812 325.488281 221.007812 327.179688 Z M 217.273438 327.421875 C 217.273438 323.617188 219.273438 321.445312 222.9375 321.445312 C 226.601562 321.445312 228.601562 323.617188 228.601562 327.421875 L 228.601562 339.773438 C 228.601562 343.570312 226.601562 345.746094 222.9375 345.746094 C 219.273438 345.746094 217.273438 343.570312 217.273438 339.773438 L 217.273438 327.421875 " fill-opacity="1" fill-rule="nonzero"/><path fill="#5a231c" d="M 234.574219 321.71875 L 234.574219 340.042969 C 234.574219 341.738281 235.320312 342.351562 236.507812 342.351562 C 237.695312 342.351562 238.441406 341.738281 238.441406 340.042969 L 238.441406 321.71875 L 241.96875 321.71875 L 241.96875 339.808594 C 241.96875 343.609375 240.070312 345.78125 236.40625 345.78125 C 232.742188 345.78125 230.84375 343.609375 230.84375 339.808594 L 230.84375 321.71875 L 234.574219 321.71875 " fill-opacity="1" fill-rule="nonzero"/><path fill="#5a231c" d="M 247.835938 328.269531 L 247.835938 345.472656 L 244.480469 345.472656 L 244.480469 321.71875 L 249.160156 321.71875 L 252.996094 335.9375 L 252.996094 321.71875 L 256.316406 321.71875 L 256.316406 345.472656 L 252.488281 345.472656 L 247.835938 328.269531 " fill-opacity="1" fill-rule="nonzero"/><path fill="#5a231c" d="M 262.730469 325.113281 L 262.730469 342.082031 L 264.832031 342.082031 C 266.023438 342.082031 266.734375 341.46875 266.734375 339.773438 L 266.734375 327.421875 C 266.734375 325.722656 266.023438 325.113281 264.832031 325.113281 Z M 258.996094 321.71875 L 264.902344 321.71875 C 268.632812 321.71875 270.46875 323.789062 270.46875 327.589844 L 270.46875 339.601562 C 270.46875 343.402344 268.632812 345.472656 264.902344 345.472656 L 258.996094 345.472656 L 258.996094 321.71875 " fill-opacity="1" fill-rule="nonzero"/></svg>