<svg xmlns="http://www.w3.org/2000/svg" xmlns:xlink="http://www.w3.org/1999/xlink" width="500" zoomAndPan="magnify" viewBox="0 0 375 374.999991" height="500" preserveAspectRatio="xMidYMid meet" version="1.0"><defs><clipPath id="633aeb42f6"><path d="M 18.75 101 L 355 101 L 355 182 L 18.75 182 Z M 18.75 101 " clip-rule="nonzero"/></clipPath></defs><path fill="#f78500" d="M 351.796875 146.386719 C 345.914062 154.859375 340.03125 163.332031 334.144531 171.792969 L 349.296875 173.484375 C 349.296875 240.554688 348.332031 297.917969 348.332031 355.464844 C 348.332031 364.230469 339.222656 370.847656 332.726562 371.039062 C 277.105469 372.742188 223.507812 370.425781 167.882812 372.128906 C 126.578125 373.398438 85.050781 374.644531 44.109375 369.066406 C 42.253906 368.8125 40.339844 368.519531 38.777344 367.484375 C 37.054688 366.34375 36.007812 364.449219 35.152344 362.578125 C 29.882812 351.019531 29.832031 337.84375 29.921875 325.140625 C 30.277344 272.601562 31.234375 220.070312 32.792969 167.550781 L 48.066406 167.148438 L 37.5 165.011719 L 20.957031 149.691406 C 37.015625 125.351562 53.960938 107.195312 73.265625 85.34375 C 75.691406 82.59375 78.261719 79.78125 81.644531 78.351562 C 84.75 77.042969 88.226562 77.03125 91.589844 77.042969 C 147.300781 77.234375 203.015625 77.414062 258.726562 77.605469 C 270.574219 77.644531 282.574219 77.707031 293.425781 81.203125 C 298.210938 84.558594 302.078125 89.019531 305.90625 93.433594 C 321.210938 111.082031 336.503906 128.734375 351.796875 146.386719 Z M 291.226562 29.015625 C 292.183594 29.570312 293.234375 29.84375 294.261719 29.84375 C 296.335938 29.84375 298.359375 28.765625 299.488281 26.839844 L 309.210938 10.15625 C 310.882812 7.273438 309.917969 3.578125 307.035156 1.894531 C 304.152344 0.210938 300.457031 1.191406 298.773438 4.070312 L 289.050781 20.753906 C 287.371094 23.636719 288.347656 27.34375 291.226562 29.015625 Z M 47.007812 54.929688 C 48.179688 56.015625 49.660156 56.558594 51.128906 56.558594 C 52.742188 56.558594 54.355469 55.914062 55.542969 54.644531 C 57.820312 52.207031 57.6875 48.390625 55.261719 46.113281 L 43.332031 34.949219 C 40.894531 32.671875 37.074219 32.792969 34.800781 35.230469 C 32.523438 37.671875 32.652344 41.488281 35.082031 43.765625 Z M 71.441406 50.234375 C 72.519531 52.308594 74.625 53.496094 76.808594 53.496094 C 77.746094 53.496094 78.695312 53.277344 79.582031 52.824219 C 82.542969 51.292969 83.699219 47.644531 82.167969 44.683594 L 65.203125 11.890625 C 63.671875 8.925781 60.027344 7.769531 57.0625 9.300781 C 54.101562 10.832031 52.941406 14.476562 54.476562 17.441406 Z M 91.960938 35.132812 C 92.367188 38.164062 94.964844 40.371094 97.945312 40.371094 C 98.207031 40.371094 98.480469 40.351562 98.753906 40.320312 C 102.058594 39.875 104.382812 36.84375 103.941406 33.53125 L 101.574219 15.839844 C 101.128906 12.535156 98.097656 10.207031 94.785156 10.648438 C 91.480469 11.09375 89.152344 14.125 89.59375 17.441406 Z M 305.230469 51.332031 C 306.429688 52.761719 308.144531 53.496094 309.875 53.496094 C 311.238281 53.496094 312.617188 53.035156 313.746094 52.097656 L 340.070312 30.125 C 342.628906 27.988281 342.972656 24.179688 340.835938 21.609375 C 338.699219 19.050781 334.890625 18.710938 332.324219 20.84375 L 305.996094 42.816406 C 303.4375 44.953125 303.097656 48.761719 305.230469 51.332031 Z M 354.75 55.714844 C 353.308594 52.703125 349.703125 51.433594 346.699219 52.863281 L 333.601562 59.117188 C 330.589844 60.558594 329.320312 64.167969 330.75 67.167969 C 331.789062 69.335938 333.953125 70.605469 336.203125 70.605469 C 337.078125 70.605469 337.964844 70.414062 338.800781 70.007812 L 351.898438 63.753906 C 354.910156 62.332031 356.191406 58.726562 354.75 55.714844 Z M 354.75 55.714844 " fill-opacity="1" fill-rule="nonzero"/><g clip-path="url(#633aeb42f6)"><path fill="#ffdc24" d="M 353.699219 175.78125 C 353.53125 176.75 354.195312 181.808594 340.25 181.355469 C 318.378906 180.640625 296.660156 181.34375 274.9375 181.355469 C 194.320312 181.394531 113.664062 181.433594 33.117188 178.140625 C 29.378906 176.832031 26.941406 176.214844 24.59375 175.390625 C 23.375 174.957031 22.136719 174.453125 21.21875 173.535156 C 19.726562 172.046875 19.375 169.789062 19.191406 167.683594 C 18.730469 162.234375 18.941406 156.730469 19.808594 151.332031 C 19.886719 150.859375 19.980469 150.355469 20.332031 150.023438 C 20.59375 149.769531 20.964844 149.667969 21.320312 149.589844 C 23.324219 149.117188 25.417969 149.003906 27.453125 149.277344 L 169.375 148.742188 L 349.78125 145.410156 C 352.542969 145.761719 353.671875 149.09375 354.0625 151.847656 C 355.203125 159.785156 355.121094 167.894531 353.699219 175.78125 Z M 122.667969 126.042969 C 128.320312 127.09375 134.125 126.609375 139.855469 126.234375 C 173.726562 124.089844 207.699219 126.457031 241.640625 127.011719 C 246.828125 127.09375 252.199219 127.101562 256.914062 124.9375 C 257.609375 124.613281 258.355469 124.171875 258.535156 123.433594 C 258.746094 122.609375 258.171875 121.804688 257.621094 121.136719 C 251.503906 113.835938 244.179688 107.558594 237.921875 102.359375 C 204.496094 101.070312 170.796875 99.789062 137.773438 105.179688 C 136.140625 105.441406 134.507812 105.734375 132.964844 106.296875 C 127.394531 108.34375 123.816406 113.664062 120.613281 118.671875 C 119.445312 120.492188 118.308594 122.960938 119.667969 124.644531 C 120.382812 125.519531 121.5625 125.832031 122.667969 126.042969 Z M 122.667969 126.042969 " fill-opacity="1" fill-rule="nonzero"/></g><path fill="#54df23" d="M 237.015625 23.835938 C 237.902344 23.90625 238.851562 24 239.535156 24.574219 C 240.484375 25.378906 240.554688 26.789062 240.542969 28.039062 C 240.339844 61.648438 241.601562 107.566406 240.945312 111.457031 C 240.714844 112.816406 240.191406 114.277344 238.992188 114.960938 C 238.195312 115.417969 237.25 115.457031 236.332031 115.476562 C 211.566406 116.203125 186.792969 116.464844 162.011719 116.734375 C 155.554688 116.804688 149.066406 116.875 142.679688 115.929688 C 140.914062 115.667969 139.011719 115.253906 137.851562 113.894531 C 137.105469 113.027344 136.492188 111.929688 136.492188 110.78125 C 136.492188 90.742188 135.554688 38.476562 139.453125 26.6875 C 139.777344 25.722656 140.160156 24.722656 140.894531 24.019531 C 142.09375 22.859375 143.917969 22.71875 145.589844 22.648438 C 169.132812 21.691406 226.628906 23.03125 237.015625 23.835938 Z M 237.015625 23.835938 " fill-opacity="1" fill-rule="nonzero"/><path fill="#ffffff" d="M 164.328125 78.683594 C 162.453125 76.628906 162.605469 73.445312 164.652344 71.570312 C 166.707031 69.699219 169.890625 69.847656 171.761719 71.894531 C 173.195312 73.464844 174.382812 75.117188 175.652344 76.859375 C 176.742188 78.363281 177.910156 79.984375 179.378906 81.765625 C 190.109375 68.507812 195.671875 61.445312 208.292969 44.449219 C 209.957031 42.214844 213.101562 41.75 215.335938 43.414062 C 217.574219 45.074219 218.035156 48.226562 216.375 50.453125 C 202.257812 69.457031 196.910156 76.136719 183.511719 92.648438 C 182.613281 93.753906 181.285156 94.429688 179.863281 94.5 C 179.773438 94.5 179.691406 94.511719 179.601562 94.511719 C 178.273438 94.511719 176.992188 93.988281 176.046875 93.039062 C 171.945312 88.941406 169.464844 85.515625 167.480469 82.753906 C 166.351562 81.183594 165.367188 79.824219 164.328125 78.683594 Z M 117.160156 223.96875 C 111.679688 226.8125 109.242188 251.273438 103.738281 269.375 C 98.230469 257.40625 95.277344 244.441406 90.90625 232 C 90.046875 229.550781 89.082031 227.054688 87.257812 225.210938 C 85.433594 223.375 82.503906 222.367188 80.175781 223.507812 C 78.242188 224.453125 77.152344 226.640625 76.949219 228.785156 C 76.75 230.933594 77.273438 233.066406 77.808594 235.164062 C 79.066406 240.160156 80.324219 245.167969 81.585938 250.164062 C 86.371094 269.207031 91.214844 288.386719 99.667969 306.109375 C 100.796875 308.476562 102.289062 311.054688 104.835938 311.660156 C 106.691406 312.101562 108.6875 311.308594 110.078125 309.996094 C 111.464844 308.6875 112.332031 306.925781 113.007812 305.140625 C 114.742188 300.578125 128.453125 235.503906 128.453125 228.433594 C 128.441406 222.648438 118.398438 223.335938 117.160156 223.96875 Z M 245.832031 225.089844 C 234.660156 224.875 223.425781 224.664062 212.34375 226.117188 C 210.519531 226.359375 208.585938 226.699219 207.257812 227.960938 C 204.796875 230.296875 205.824219 234.738281 208.476562 236.855469 C 211.125 238.972656 214.691406 239.9375 218.4375 239.949219 C 219.09375 239.949219 219.75 239.949219 220.402344 239.949219 C 221.148438 258.457031 220.433594 277.003906 221.140625 295.519531 C 221.25 298.3125 221.480469 301.332031 223.324219 303.429688 C 225.785156 306.21875 230.144531 306.257812 233.734375 305.292969 C 234.296875 305.140625 238.074219 302.621094 237.378906 290.644531 L 238.214844 239.980469 C 239.757812 239.980469 241.296875 239.980469 242.839844 239.988281 C 245.367188 239.988281 248.140625 239.90625 250.03125 238.226562 C 251.613281 236.816406 252.179688 234.597656 252.429688 232.503906 C 252.691406 230.347656 252.582031 227.859375 250.949219 226.417969 C 249.589844 225.21875 247.625 225.117188 245.832031 225.089844 Z M 298.148438 227.265625 C 289.03125 226.238281 279.824219 226.054688 270.675781 226.710938 C 269.316406 226.8125 267.84375 226.972656 266.835938 227.890625 C 266.140625 228.523438 262.597656 229.832031 262.597656 245.589844 C 262.597656 251.898438 262.050781 258.195312 261.921875 264.5 C 261.691406 275.269531 261.457031 286.039062 261.226562 296.808594 C 261.164062 299.480469 261.175781 302.351562 262.726562 304.527344 C 265.003906 307.699219 269.527344 308.023438 273.4375 308.042969 C 279.339844 308.074219 285.253906 308.101562 291.15625 308.132812 C 291.730469 308.132812 292.347656 308.132812 292.832031 307.8125 C 293.394531 307.4375 293.636719 306.734375 293.828125 306.089844 C 294.472656 303.941406 295.136719 301.746094 295.007812 299.519531 C 294.886719 297.28125 293.816406 294.964844 291.824219 293.957031 C 290.917969 293.496094 289.886719 293.34375 288.882812 293.191406 C 284.832031 292.578125 279.785156 293.476562 275.855469 292.800781 C 275.855469 286.625 276.035156 280.246094 276.277344 274.140625 C 278.835938 273.769531 281.40625 273.488281 283.984375 273.367188 C 287.5625 273.203125 291.328125 273.234375 294.453125 271.492188 C 295.066406 271.148438 295.660156 270.726562 296.023438 270.121094 C 296.355469 269.578125 296.476562 268.921875 296.558594 268.289062 C 296.808594 266.261719 296.730469 264.1875 296.304688 262.183594 C 296.023438 260.832031 295.53125 259.433594 294.441406 258.566406 C 293.375 257.71875 291.933594 257.550781 290.574219 257.4375 C 286.089844 257.066406 281.585938 256.953125 277.09375 257.09375 C 277.4375 250.515625 277.699219 245.308594 277.609375 242.667969 C 281.878906 241.449219 286.371094 240.984375 290.804688 241.308594 C 293.484375 241.5 296.417969 241.914062 298.644531 240.421875 C 300.546875 239.140625 301.425781 236.726562 301.414062 234.4375 C 301.402344 232.140625 300.65625 229.925781 298.148438 227.265625 Z M 195.601562 239.574219 C 197.714844 248.472656 201.898438 258.546875 191.710938 282.019531 C 189.0625 288.136719 185.667969 294.039062 180.851562 298.644531 C 176.035156 303.246094 169.65625 306.472656 163 306.542969 C 152.53125 306.652344 143.089844 298.734375 139.242188 289 C 135.394531 279.269531 136.390625 268.175781 139.65625 258.234375 C 141.972656 251.160156 145.398438 244.453125 149.769531 238.425781 C 154.445312 231.980469 160.410156 225.734375 168.136719 223.789062 C 185.496094 219.445312 194.460938 234.78125 195.601562 239.574219 Z M 179.542969 247.675781 C 178.886719 246.003906 177.960938 244.289062 176.335938 243.503906 C 175.015625 242.859375 173.464844 242.960938 172.015625 243.171875 C 170.132812 243.453125 168.246094 243.917969 166.617188 244.886719 C 163.574219 246.679688 161.738281 249.941406 160.328125 253.1875 C 157.207031 260.347656 155.472656 268.105469 155.230469 275.925781 C 155.160156 278.152344 155.222656 280.417969 155.894531 282.542969 C 156.570312 284.667969 157.980469 286.542969 159.894531 287.683594 C 168.046875 292.539062 176.648438 277.03125 179.378906 269.949219 C 182.121094 262.847656 182.332031 254.738281 179.542969 247.675781 Z M 179.542969 247.675781 " fill-opacity="1" fill-rule="nonzero"/></svg>